HIERARCHY
ROOT Hips
{
    OFFSET 0.000000 0.000000 0.000000
    CHANNELS 6 Xposition Yposition Zposition Zrotation Xrotation Yrotation
    JOINT Spine
    {
        OFFSET -0.000000 7.236184 0.000000
        CHANNELS 3 Zrotation Xrotation Yrotation
        JOINT Spine1
        {
            OFFSET -0.000000 20.420147 0.000000
            CHANNELS 3 Zrotation Xrotation Yrotation
            JOINT Neck
            {
                OFFSET -0.000000 20.336288 1.848754
                CHANNELS 3 Zrotation Xrotation Yrotation
                JOINT Head
                {
                    OFFSET -0.000000 12.354461 -1.764923
                    CHANNELS 3 Zrotation Xrotation Yrotation
                    End Site
                    {
                        OFFSET -0.000000 22.061537 0.000000
                    }
                }
            }
            JOINT LeftShoulder
            {
                OFFSET 3.573296 18.396038 -0.314103
                CHANNELS 3 Zrotation Xrotation Yrotation
                JOINT LeftArm
                {
                    OFFSET 10.880760 0.000000 0.000000
                    CHANNELS 3 Zrotation Xrotation Yrotation
                    JOINT LeftForeArm
                    {
                        OFFSET 27.185530 0.000000 0.000000
                        CHANNELS 3 Zrotation Xrotation Yrotation
                        JOINT LeftHand
                        {
                            OFFSET 27.825975 0.000000 0.000000
                            CHANNELS 3 Zrotation Xrotation Yrotation
                            End Site
                            {
                                OFFSET 13.236923 0.000000 0.000000
                            }
                        }
                    }
                }
            }
            JOINT RightShoulder
            {
                OFFSET -3.474926 18.396038 -0.314103
                CHANNELS 3 Zrotation Xrotation Yrotation
                JOINT RightArm
                {
                    OFFSET -10.880760 0.000000 0.000000
                    CHANNELS 3 Zrotation Xrotation Yrotation
                    JOINT RightForeArm
                    {
                        OFFSET -27.185530 0.000000 0.000000
                        CHANNELS 3 Zrotation Xrotation Yrotation
                        JOINT RightHand
                        {
                            OFFSET -27.825975 0.000000 0.000000
                            CHANNELS 3 Zrotation Xrotation Yrotation
                            End Site
                            {
                                OFFSET -13.236923 0.000000 0.000000
                            }
                        }
                    }
                }
            }
        }
    }
    JOINT LeftUpLeg
    {
        OFFSET 8.824615 0.000000 0.000000
        CHANNELS 3 Zrotation Xrotation Yrotation
        JOINT LeftLeg
        {
            OFFSET -0.000000 -35.111282 0.000000
            CHANNELS 3 Zrotation Xrotation Yrotation
            JOINT LeftFoot
            {
                OFFSET -0.000000 -42.324711 0.000000
                CHANNELS 3 Zrotation Xrotation Yrotation
                JOINT LeftToeBase
                {
                    OFFSET -0.000000 -5.735999 13.236923
                    CHANNELS 3 Zrotation Xrotation Yrotation
                    End Site
                    {
                        OFFSET -0.000000 0.000000 3.529846
                    }
                }
            }
        }
    }
    JOINT RightUpLeg
    {
        OFFSET -8.824615 0.000000 0.000000
        CHANNELS 3 Zrotation Xrotation Yrotation
        JOINT RightLeg
        {
            OFFSET -0.000000 -35.111282 0.000000
            CHANNELS 3 Zrotation Xrotation Yrotation
            JOINT RightFoot
            {
                OFFSET -0.000000 -42.324711 0.000000
                CHANNELS 3 Zrotation Xrotation Yrotation
                JOINT RightToeBase
                {
                    OFFSET -0.000000 -5.735999 13.236923
                    CHANNELS 3 Zrotation Xrotation Yrotation
                    End Site
                    {
                        OFFSET -0.000000 0.000000 3.529846
                    }
                }
            }
        }
    }
}
MOTION
Frames:    10
Frame Time:    0.008333
-3.166623    80.901321    95.833099    0.659468    -4.588632    178.126999    -1.849358    -15.104613    0.762184    -0.614885    8.145839    1.051172    2.386427    6.895860    -2.742784    6.902912    -0.401078    -2.052006    0.782099    18.185936    -3.234368    -42.480404    47.219410    -40.954353    -2.840263    -4.889154    -17.415613    17.648689    -4.886216    2.821207    6.565071    19.778770    -3.259707    36.812572    47.013474    43.420746    0.885385    -6.051615    16.991562    -15.322353    -5.579988    -4.504603    3.513033    -1.495685    1.652230    -3.293145    6.276907    3.691310    0.327217    -8.465021    -7.255496    -0.007203    0.246535    0.007981    -3.659751    -3.223058    4.124024    2.807473    7.955255    8.205286    -0.947109    -7.995915    -12.362893    -0.336997    0.174510    0.364401    
-3.139342    80.901993    95.840462    0.661074    -4.594991    178.039459    -1.863618    -15.095901    0.760923    -0.596980    8.141192    1.050357    2.435600    6.842510    -2.571313    7.060573    -0.221362    -1.866597    0.782129    18.184994    -3.239133    -42.487793    47.222099    -40.945164    -2.844601    -4.895344    -17.422846    17.638344    -4.893199    2.823251    6.564567    19.776142    -3.257184    36.805012    47.069084    43.406536    0.813953    -6.084387    17.016005    -15.293814    -5.600452    -4.527303    3.530329    -1.488620    1.668078    -3.288811    6.265776    3.776406    0.308516    -8.463805    -7.269311    -0.008814    0.244916    0.009766    -3.637362    -3.242587    4.177104    2.812368    7.932242    8.206684    -0.952137    -7.968416    -12.330824    -0.340316    0.178895    0.367988    
-3.112046    80.902657    95.847733    0.661884    -4.601646    177.954681    -1.877955    -15.086986    0.758929    -0.577903    8.136280    1.048758    2.487369    6.789456    -2.405753    7.197617    -0.053555    -1.690330    0.781416    18.183939    -3.244534    -42.496239    47.224495    -40.934509    -2.850003    -4.902274    -17.428667    17.629168    -4.901000    2.825420    6.563478    19.772718    -3.255546    36.798122    47.123146    43.392170    0.744578    -6.116140    17.040125    -15.266177    -5.620246    -4.549203    3.546964    -1.482297    1.682712    -3.284592    6.254683    3.862484    0.289514    -8.462220    -7.285508    -0.010276    0.243198    0.011385    -3.616024    -3.261589    4.229914    2.818366    7.907284    8.205594    -0.958914    -7.939506    -12.299042    -0.344110    0.184030    0.372088    
-3.084747    80.903320    95.854897    0.661980    -4.608500    177.872833    -1.892328    -15.077735    0.756209    -0.557544    8.131034    1.046274    2.541298    6.736790    -2.246012    7.314119    0.102469    -1.522928    0.779970    18.182903    -3.250589    -42.505104    47.226330    -40.923199    -2.856794    -4.909665    -17.432768    17.620716    -4.909474    2.827067    6.561625    19.768684    -3.254756    36.792923    47.172127    43.377716    0.681233    -6.144950    17.062721    -15.241556    -5.638059    -4.569402    3.563045    -1.476781    1.697292    -3.280466    6.243808    3.948583    0.270147    -8.460227    -7.304487    -0.011568    0.241692    0.012818    -3.595683    -3.279920    4.282043    2.825419    7.880538    8.202244    -0.965894    -7.909516    -12.267276    -0.348152    0.189373    0.376456    
-3.057353    80.903969    95.861938    0.661441    -4.615473    177.793777    -1.906826    -15.068301    0.752699    -0.535553    8.125883    1.042910    2.596125    6.684245    -2.091551    7.412434    0.247650    -1.363361    0.777516    18.181665    -3.257573    -42.514202    47.227585    -40.911491    -2.864906    -4.917283    -17.434700    17.612671    -4.918482    2.827767    6.559096    19.764128    -3.255021    36.789242    47.214310    43.363678    0.625818    -6.170010    17.083141    -15.220610    -5.653424    -4.587541    3.578574    -1.472224    1.713436    -3.275989    6.233761    4.033813    0.250221    -8.458123    -7.326842    -0.012713    0.239830    0.014086    -3.576010    -3.297596    4.332952    2.832839    7.852922    8.197054    -0.975148    -7.878975    -12.235577    -0.352568    0.195614    0.381228    
-3.030265    80.904594    95.868752    0.660226    -4.622335    177.718765    -1.921400    -15.058558    0.748404    -0.512129    8.120737    1.038713    2.650073    6.632716    -1.944276    7.493096    0.380257    -1.213156    0.773993    18.180193    -3.265502    -42.523113    47.227970    -40.899967    -2.874412    -4.924408    -17.434177    17.605259    -4.927330    2.827178    6.555680    19.758926    -3.256275    36.787369    47.249542    43.350060    0.578812    -6.191128    17.100969    -15.203510    -5.666195    -4.603417    3.593141    -1.468718    1.731663    -3.270866    6.224974    4.116798    0.229751    -8.456004    -7.352976    -0.013683    0.238208    0.015161    -3.557464    -3.314160    4.381800    2.840475    7.825565    8.191334    -0.983238    -7.849492    -12.205095    -0.357021    0.201308    0.386040    
-3.002606    80.905151    95.875511    0.658203    -4.629045    177.645370    -1.936713    -15.048103    0.743235    -0.486353    8.115763    1.033525    2.704182    6.580304    -1.799181    7.559962    0.505062    -1.066855    0.769167    18.178507    -3.274513    -42.531090    47.227467    -40.889320    -2.885709    -4.930924    -17.431005    17.598360    -4.935959    2.825232    6.551292    19.753311    -3.258872    36.786350    47.278778    43.337360    0.538714    -6.209127    17.117002    -15.189560    -5.676980    -4.617756    3.607180    -1.465781    1.752328    -3.265121    6.216829    4.200690    0.208246    -8.453636    -7.384020    -0.014526    0.236651    0.016095    -3.539365    -3.329973    4.429427    2.847969    7.798341    8.184991    -0.992248    -7.820498    -12.174475    -0.361757    0.207737    0.391157    
-2.975267    80.905602    95.881996    0.655406    -4.635427    177.576080    -1.952355    -15.037508    0.737331    -0.459038    8.111277    1.027593    2.756489    6.528850    -1.660485    7.611744    0.618314    -0.928596    0.762972    18.176430    -3.284683    -42.537697    47.225948    -40.880009    -2.898744    -4.936141    -17.424913    17.592602    -4.943671    2.821914    6.546299    19.747105    -3.262501    36.786251    47.302311    43.325256    0.505557    -6.224037    17.130939    -15.178837    -5.685788    -4.630155    3.620054    -1.463426    1.773748    -3.258766    6.209285    4.284790    0.186186    -8.450936    -7.420083    -0.015241    0.235513    0.016887    -3.522395    -3.344451    4.474190    2.854976    7.772484    8.179293    -1.001200    -7.793452    -12.145662    -0.366512    0.214145    0.396295    
-2.948016    80.905930    95.888199    0.651509    -4.641140    177.510101    -1.968905    -15.026195    0.730711    -0.429775    8.107266    1.020820    2.807017    6.477668    -1.526176    7.650678    0.721798    -0.796008    0.755446    18.173647    -3.295933    -42.542385    47.223701    -40.872688    -2.913903    -4.939866    -17.415882    17.588104    -4.950319    2.817187    6.540378    19.740768    -3.267358    36.786098    47.320946    43.314732    0.478119    -6.236489    17.143244    -15.170664    -5.693070    -4.641024    3.631458    -1.460859    1.794219    -3.251787    6.201406    4.372195    0.163208    -8.447474    -7.461871    -0.015792    0.234328    0.017498    -3.506771    -3.357347    4.516341    2.861604    7.747845    8.174351    -1.011109    -7.768056    -12.118365    -0.371269    0.220806    0.401435    
-2.920883    80.906059    95.894073    0.646419    -4.645986    177.447418    -1.986170    -15.014181    0.723345    -0.399430    8.103792    1.013382    2.856146    6.426733    -1.395682    7.678089    0.816341    -0.668305    0.746952    18.170704    -3.308046    -42.544285    47.220490    -40.868759    -2.931386    -4.942042    -17.403379    17.584888    -4.955911    2.810902    6.534206    19.734135    -3.273138    36.785435    47.335918    43.305477    0.455451    -6.247030    17.154221    -15.164766    -5.699203    -4.650834    3.641321    -1.457421    1.811615    -3.244567    6.192403    4.464504    0.139594    -8.443037    -7.508896    -0.016282    0.233604    0.018041    -3.492717    -3.368369    4.555858    2.867998    7.724250    8.170804    -1.020746    -7.744336    -12.092983    -0.375982    0.227364    0.406527    
